<?xml version="1.0" standalone="no"?>
<!DOCTYPE svg PUBLIC "-//W3C//DTD SVG 20010904//EN"
 "http://www.w3.org/TR/2001/REC-SVG-20010904/DTD/svg10.dtd">
<svg version="1.0" xmlns="http://www.w3.org/2000/svg"
 width="2423.000000pt" height="3292.000000pt" viewBox="0 0 2423.000000 3292.000000"
 preserveAspectRatio="xMidYMid meet">
<metadata>
Created by potrace 1.14, written by Peter Selinger 2001-2017
</metadata>
<g transform="translate(0.000000,3292.000000) scale(0.100000,-0.100000)"
fill="#000000" stroke="none">
<path d="M11849 29316 c-2 -2 -62 -6 -134 -10 -71 -3 -150 -8 -175 -11 -25 -3
-101 -12 -170 -21 -172 -20 -336 -56 -525 -114 -88 -27 -187 -57 -220 -66 -33
-9 -85 -28 -115 -41 -30 -14 -75 -31 -100 -40 -209 -70 -382 -146 -488 -216
-37 -24 -105 -65 -152 -90 -47 -25 -112 -68 -145 -94 -33 -27 -87 -67 -120
-90 -129 -88 -395 -330 -436 -398 -35 -56 -16 -115 35 -115 14 0 47 22 83 55
65 59 132 109 203 152 25 15 61 39 81 55 20 15 62 41 93 57 30 16 75 43 98 59
24 16 81 48 128 72 47 23 107 58 134 77 27 19 85 51 130 70 44 19 88 40 96 48
23 20 242 95 469 160 51 15 116 37 145 50 28 12 65 25 81 28 17 3 84 18 150
32 253 54 408 76 625 86 459 23 956 -32 1425 -160 154 -42 404 -124 480 -158
44 -19 141 -60 214 -90 169 -69 203 -86 341 -173 61 -38 113 -70 116 -70 9 0
149 -97 260 -181 148 -111 250 -198 370 -316 93 -91 283 -311 322 -372 9 -14
38 -50 64 -79 49 -54 252 -355 302 -447 50 -91 175 -375 205 -463 35 -104 71
-264 106 -467 14 -82 33 -188 41 -235 35 -197 26 -763 -16 -1055 -40 -276
-109 -596 -146 -683 -26 -59 -44 -133 -44 -179 0 -53 25 -72 71 -53 68 28 211
377 317 770 91 339 151 960 123 1280 -25 291 -32 361 -52 475 -32 187 -94 421
-148 557 -16 40 -36 98 -45 130 -35 121 -273 565 -371 691 -166 214 -363 414
-535 544 -63 48 -144 110 -180 139 -71 56 -411 288 -475 324 -56 32 -297 152
-380 190 -136 62 -397 150 -490 165 -22 3 -92 19 -155 35 -213 54 -470 102
-780 145 -172 24 -696 54 -711 41z"/>
<path d="M8040 27890 c-39 -39 -22 -99 61 -222 53 -77 171 -189 222 -210 55
-22 89 -22 222 1 201 36 318 67 337 91 23 28 23 54 1 76 -15 14 -30 16 -118 9
-55 -4 -107 -8 -115 -7 -8 0 -35 1 -60 2 -48 2 -210 41 -263 64 -32 13 -82 45
-128 81 -14 11 -39 41 -54 65 -46 73 -70 85 -105 50z"/>
<path d="M7494 27759 c-16 -18 -19 -40 -22 -148 -3 -132 -3 -129 54 -256 52
-117 146 -261 197 -304 17 -14 45 -41 61 -60 55 -60 209 -119 331 -128 148
-11 263 42 338 155 51 77 54 95 26 136 -34 51 -52 59 -102 45 -45 -12 -181
-15 -262 -6 -117 13 -345 112 -426 185 -31 27 -54 59 -65 90 -10 26 -22 53
-27 59 -5 7 -12 60 -15 119 -5 109 -15 134 -51 134 -10 0 -26 -9 -37 -21z"/>
<path d="M7290 26863 c-28 -36 -22 -58 53 -173 40 -61 101 -134 172 -205 91
-91 126 -119 205 -161 52 -28 118 -56 147 -63 l52 -13 114 52 c71 32 125 63
144 83 76 83 129 181 117 220 -18 61 -81 80 -157 48 -55 -24 -178 -41 -289
-41 -144 0 -338 89 -422 194 -77 96 -99 106 -136 59z"/>
<path d="M10230 26362 c-25 -8 -173 -161 -252 -259 -135 -168 -191 -290 -189
-408 4 -160 40 -322 121 -540 64 -173 67 -180 118 -252 48 -70 72 -82 107 -59
31 20 32 47 4 139 -11 38 -24 90 -29 116 -58 317 -60 346 -44 500 22 213 127
525 209 623 51 60 18 161 -45 140z"/>
<path d="M8790 26048 c-286 -271 -334 -327 -386 -455 -21 -52 -29 -90 -32
-161 -5 -114 9 -191 54 -286 19 -41 34 -77 34 -80 0 -7 27 -51 89 -146 33 -51
65 -88 181 -212 58 -61 98 -71 135 -34 34 34 30 55 -46 211 -63 129 -80 184
-111 340 -49 254 8 553 127 665 14 13 25 28 25 34 0 6 18 28 39 51 51 51 60
86 32 114 -37 37 -69 27 -141 -41z"/>
<path d="M7881 25951 c-69 -69 -143 -203 -181 -326 -12 -38 -37 -115 -56 -170
-18 -55 -38 -131 -45 -170 -6 -38 -17 -92 -24 -120 -8 -27 -22 -93 -31 -145
-9 -52 -23 -120 -31 -150 -8 -30 -18 -91 -22 -135 -5 -44 -15 -114 -22 -155
-18 -99 -18 -654 0 -830 18 -170 37 -299 51 -334 6 -16 15 -54 19 -85 24 -152
128 -505 193 -651 9 -19 24 -60 33 -90 18 -58 80 -197 203 -450 140 -291 134
-274 144 -395 8 -98 6 -278 -7 -680 -8 -222 17 -415 91 -725 71 -297 120 -405
301 -658 105 -149 357 -372 551 -489 108 -64 134 -72 190 -52 59 20 52 42 -45
143 -290 303 -437 504 -511 699 -134 354 -175 495 -208 712 -32 215 -41 563
-19 780 52 508 47 568 -64 795 -23 47 -47 94 -53 104 -5 11 -33 63 -60 115
-64 121 -87 161 -109 186 -54 61 -296 700 -363 960 -20 77 -74 379 -92 515
-23 170 -29 594 -11 720 22 145 44 270 67 365 10 44 22 96 26 115 3 19 19 67
35 105 31 77 84 216 131 340 31 85 32 123 1 157 -21 23 -58 23 -82 -1z"/>
<path d="M9326 25708 c-62 -55 -82 -91 -159 -283 -43 -107 -55 -171 -64 -325
-13 -256 39 -414 206 -625 125 -157 410 -435 445 -435 8 0 38 -18 67 -40 30
-23 63 -43 74 -46 30 -8 74 12 84 38 12 33 3 54 -48 111 -26 29 -65 77 -86
107 -22 30 -68 85 -102 123 -231 252 -347 499 -360 767 -9 201 16 396 73 554
24 66 12 100 -36 104 -30 2 -44 -6 -94 -50z"/>
<path d="M15614 23468 c-121 -45 -282 -138 -352 -203 -82 -77 -159 -203 -142
-235 22 -41 59 -25 149 60 110 105 165 136 258 145 68 7 76 5 165 -31 117 -49
164 -94 219 -207 52 -110 63 -193 55 -417 -10 -277 -56 -504 -160 -777 -72
-190 -162 -354 -245 -446 -78 -86 -215 -150 -322 -150 -58 0 -75 5 -132 37
-55 30 -70 35 -91 26 -32 -12 -51 -50 -42 -85 8 -32 78 -110 126 -140 47 -29
171 -57 223 -50 56 8 232 72 285 105 62 39 209 186 243 245 16 28 56 88 89
135 32 47 88 144 124 215 103 208 148 345 177 535 5 36 17 106 25 155 37 219
31 521 -14 643 -61 169 -223 364 -362 437 -57 30 -199 31 -276 3z"/>
<path d="M11951 23428 c-13 -7 -33 -29 -44 -49 -18 -31 -19 -41 -10 -62 22
-48 52 -59 125 -46 49 9 90 9 173 0 94 -10 112 -9 132 5 42 27 49 77 15 107
-48 41 -337 75 -391 45z"/>
<path d="M8958 23295 c-55 -15 -93 -40 -137 -90 -35 -40 -39 -73 -14 -116 21
-36 51 -38 90 -5 63 53 137 77 265 86 9 0 28 58 28 85 0 41 -30 55 -111 54
-41 -1 -95 -7 -121 -14z"/>
<path d="M15522 22648 c-18 -18 -15 -40 18 -110 27 -56 30 -73 30 -159 0 -83
-3 -102 -26 -148 -15 -29 -33 -55 -41 -58 -9 -3 -32 11 -56 35 -45 44 -122 82
-166 82 -72 0 -91 -60 -44 -139 26 -43 28 -54 31 -188 l4 -143 31 -26 c34 -29
49 -29 149 1 80 23 171 114 212 214 93 223 69 490 -55 606 -50 47 -67 53 -87
33z"/>
<path d="M12370 22303 c-25 -2 -97 -20 -160 -39 -216 -68 -365 -196 -331 -286
16 -41 47 -45 95 -11 47 33 157 67 187 58 16 -5 19 -12 14 -32 -4 -18 6 -48
37 -111 71 -140 118 -172 200 -133 24 11 59 34 78 50 31 27 64 39 152 56 43 8
51 34 75 227 6 53 -7 78 -40 78 -33 0 -107 39 -181 97 -38 29 -72 52 -75 51
-3 -1 -26 -3 -51 -5z"/>
<path d="M9304 22066 c-28 -13 -55 -29 -58 -35 -4 -6 -15 -11 -25 -11 -10 0
-39 -11 -65 -25 -26 -14 -53 -25 -61 -25 -8 0 -22 -11 -30 -24 -17 -26 -13
-64 11 -103 14 -22 18 -23 133 -17 l119 6 -1 -58 c0 -73 17 -130 51 -166 29
-32 59 -35 104 -12 36 18 128 15 185 -8 45 -17 73 -1 106 60 20 36 29 71 33
125 7 73 6 78 -24 124 -18 26 -50 63 -72 81 -34 28 -53 35 -133 47 -104 16
-122 21 -156 47 -31 24 -56 23 -117 -6z"/>
<path d="M14800 20728 c-11 -18 -20 -37 -20 -43 0 -5 -21 -73 -46 -150 -74
-224 -162 -384 -364 -660 -185 -253 -523 -557 -672 -604 -69 -22 -99 -89 -58
-126 19 -17 27 -17 94 -7 161 25 471 158 611 262 242 180 389 353 450 529 72
207 86 253 99 326 20 115 36 288 35 374 -1 70 -3 76 -32 103 -42 38 -72 36
-97 -4z"/>
<path d="M10611 20664 c-25 -32 -25 -37 -6 -74 21 -41 87 -76 177 -94 135 -28
164 -22 196 40 15 29 -5 64 -48 79 -91 33 -241 75 -268 75 -21 0 -37 -8 -51
-26z"/>
<path d="M15559 20582 c-25 -23 -31 -34 -25 -53 8 -30 48 -60 95 -70 73 -15
177 -49 231 -75 30 -14 75 -33 100 -40 55 -16 257 -144 355 -224 142 -117 309
-308 389 -445 60 -104 177 -380 209 -492 14 -49 39 -178 56 -288 18 -110 36
-220 41 -245 9 -42 15 -100 40 -400 10 -117 33 -278 50 -360 6 -25 13 -61 16
-80 4 -19 23 -89 44 -155 144 -454 183 -594 200 -705 6 -41 17 -100 25 -130 8
-30 19 -82 24 -115 6 -33 20 -114 32 -180 26 -145 37 -456 20 -543 -6 -31 -18
-95 -26 -142 -46 -249 -128 -437 -268 -610 -101 -126 -259 -279 -313 -305 -21
-10 -75 -41 -119 -68 -119 -75 -234 -121 -415 -166 -196 -49 -335 -60 -541
-42 -183 16 -248 27 -434 72 -163 40 -226 61 -324 106 -31 14 -89 38 -129 54
-153 61 -332 168 -532 317 -63 47 -131 97 -150 111 -35 26 -124 108 -360 335
-141 135 -331 357 -420 491 -78 119 -161 222 -182 230 -29 10 -57 -4 -64 -32
-8 -32 77 -213 156 -331 30 -46 89 -136 130 -201 41 -65 104 -158 140 -206 36
-49 70 -97 75 -107 40 -69 365 -377 555 -526 149 -117 339 -257 384 -283 54
-32 60 -35 144 -87 408 -250 908 -365 1422 -327 152 11 507 93 565 129 11 7
33 16 49 20 38 9 240 107 286 138 19 13 47 29 62 35 44 20 169 117 228 177 30
31 59 56 65 56 5 0 26 24 45 53 19 28 52 74 73 101 68 88 140 254 188 434 80
301 95 466 73 777 -20 279 -41 413 -104 649 -23 87 -45 181 -50 210 -5 28 -18
94 -30 146 -12 52 -34 163 -50 245 -16 83 -43 211 -60 285 -17 74 -35 160 -40
190 -16 93 -40 399 -40 511 0 98 -26 330 -49 439 -30 144 -46 204 -92 352 -84
268 -170 435 -336 656 -35 46 -63 87 -63 92 0 13 -230 209 -302 258 -208 140
-268 174 -364 201 -38 10 -98 32 -134 49 -93 42 -310 108 -415 127 -112 19
-99 20 -136 -13z"/>
<path d="M7778 20141 c-133 -55 -251 -126 -421 -254 -234 -175 -303 -237 -410
-372 -96 -121 -258 -357 -366 -535 -36 -59 -138 -262 -161 -320 -8 -19 -41
-84 -73 -143 -65 -118 -131 -197 -376 -452 -222 -231 -242 -253 -315 -352 -38
-51 -75 -94 -82 -97 -23 -9 -128 -158 -199 -283 -38 -65 -74 -125 -81 -133 -7
-8 -38 -71 -69 -140 -31 -69 -74 -161 -95 -205 -45 -92 -72 -165 -107 -285
-13 -47 -30 -106 -38 -132 -101 -340 -111 -896 -20 -1131 8 -20 15 -47 15 -60
1 -41 125 -311 185 -400 134 -201 388 -448 559 -541 22 -13 68 -38 101 -56 33
-18 67 -38 75 -45 22 -18 252 -92 340 -110 151 -29 215 -36 354 -36 190 1 515
44 600 80 26 12 56 21 65 21 10 0 51 14 92 31 41 17 116 46 167 65 130 47 317
144 482 250 25 16 53 34 62 39 9 6 34 22 55 36 21 14 78 52 126 83 114 74 212
153 362 291 66 61 133 121 149 133 24 18 363 339 431 408 120 121 225 248 225
271 0 48 -61 73 -91 36 -8 -9 -41 -39 -74 -66 -33 -27 -78 -66 -100 -86 -22
-20 -67 -59 -99 -86 -33 -28 -74 -64 -90 -82 -72 -74 -259 -231 -362 -304 -61
-43 -149 -110 -195 -149 -46 -39 -137 -106 -202 -148 -64 -42 -154 -101 -200
-131 -191 -127 -628 -300 -857 -341 -137 -24 -389 -29 -505 -9 -33 5 -85 14
-115 18 -65 10 -235 56 -288 78 -329 136 -515 274 -729 544 -112 140 -157 218
-219 378 -76 196 -95 310 -96 565 0 154 3 187 31 326 63 306 83 365 237 675
98 197 168 308 285 452 116 143 456 478 526 519 28 16 82 56 119 90 38 34 103
90 144 126 168 144 237 273 325 603 29 107 67 212 97 265 17 30 56 102 86 160
132 252 338 496 567 672 44 34 99 78 122 98 39 34 71 49 207 101 70 26 85 60
46 99 -30 30 -73 24 -202 -29z"/>
<path d="M11173 20130 c-128 -27 -202 -121 -203 -256 0 -52 -4 -75 -15 -84
-21 -17 -95 -6 -160 24 -36 16 -57 21 -73 15 -56 -21 -47 -125 14 -161 19 -11
33 -26 31 -32 -2 -6 -35 -19 -73 -29 -194 -50 -260 -70 -326 -100 -40 -19
-102 -44 -138 -57 -36 -13 -101 -46 -145 -73 -94 -59 -287 -218 -305 -252 -9
-16 -39 -35 -89 -56 -192 -79 -369 -233 -447 -390 -17 -33 -39 -58 -67 -76
-43 -26 -117 -76 -217 -144 -67 -46 -145 -119 -190 -179 -19 -25 -55 -70 -81
-100 -65 -77 -137 -237 -164 -366 -22 -107 -89 -176 -235 -245 -56 -26 -164
-45 -301 -54 -116 -8 -184 1 -300 40 -41 14 -155 41 -254 61 -275 56 -546 58
-705 8 -281 -90 -493 -270 -683 -579 -74 -120 -94 -164 -117 -256 -12 -46 -30
-109 -41 -139 -25 -71 -25 -140 0 -171 16 -21 22 -22 45 -11 14 6 26 16 26 20
0 5 14 27 31 48 18 22 41 59 52 84 22 51 43 79 174 236 51 61 119 131 150 155
32 24 63 49 68 55 27 31 164 107 240 134 173 60 267 74 505 74 228 0 202 4
593 -74 77 -16 214 -12 322 10 150 29 214 52 332 119 40 23 79 41 87 41 8 0
23 -27 37 -67 31 -90 141 -252 226 -334 83 -81 103 -89 138 -55 29 29 29 29
-33 141 -53 95 -64 125 -98 264 -23 91 -26 119 -20 196 9 124 28 199 80 308
111 233 320 440 480 477 l70 16 34 84 c72 182 110 246 203 339 76 76 141 123
153 110 2 -2 19 -35 38 -74 20 -38 43 -84 54 -101 l18 -31 -29 -34 c-38 -46
-51 -80 -69 -185 -31 -173 -18 -225 81 -333 97 -107 163 -134 333 -135 l95 -1
0 -68 c0 -60 3 -71 24 -88 31 -25 38 -24 107 11 136 70 344 164 409 185 39 12
111 40 160 62 50 22 144 53 210 69 143 34 175 56 175 124 0 51 -13 76 -43 84
-72 18 -413 -1 -550 -30 -39 -8 -99 -20 -132 -26 -33 -5 -68 -14 -77 -19 -16
-8 -174 -26 -192 -21 -4 2 -57 3 -117 3 -97 0 -113 3 -153 25 -25 14 -48 35
-52 47 -14 42 -3 111 24 162 22 41 43 61 120 111 204 134 474 247 737 309 61
14 126 32 145 40 19 7 75 19 125 27 83 12 91 15 104 42 19 40 4 85 -35 108
-29 17 -42 17 -154 8 -260 -23 -635 -122 -871 -231 l-68 -31 -40 33 c-49 41
-78 106 -62 137 14 26 125 132 178 171 121 87 379 173 653 217 47 7 114 18
150 24 78 14 236 17 305 6 44 -7 52 -6 70 14 18 20 18 24 4 48 -8 15 -40 41
-71 57 -84 45 -133 88 -188 167 -39 55 -50 80 -50 109 0 67 13 87 65 95 72 10
166 -29 375 -155 47 -28 88 -51 91 -51 4 0 58 -29 120 -63 63 -35 152 -83 199
-107 47 -23 96 -50 110 -60 14 -10 66 -34 117 -53 50 -20 138 -60 195 -90 57
-30 114 -58 128 -62 14 -4 75 -34 135 -66 165 -89 361 -250 553 -455 193 -206
359 -353 515 -454 75 -49 156 -96 180 -104 23 -8 92 -38 152 -67 61 -28 166
-69 235 -90 229 -71 668 -201 755 -224 28 -7 174 -54 325 -105 274 -92 407
-150 537 -233 37 -24 97 -59 133 -78 71 -37 220 -178 302 -284 49 -64 115
-190 150 -283 11 -31 27 -66 34 -77 6 -11 15 -40 19 -65 15 -108 27 -130 69
-130 55 0 82 75 89 245 8 187 -38 387 -132 572 -84 167 -366 433 -571 539 -47
24 -92 48 -100 53 -71 42 -331 129 -510 171 -181 42 -255 58 -310 69 -30 6
-93 18 -140 27 -120 24 -244 42 -480 70 -181 21 -242 36 -365 88 -115 50 -292
160 -344 215 -19 20 -74 66 -122 102 -48 36 -145 120 -216 186 -120 112 -160
149 -295 266 -77 67 -428 297 -453 297 -2 0 -36 15 -77 33 -40 18 -91 40 -113
49 -197 76 -274 109 -359 153 -55 28 -101 55 -103 60 -4 15 6 27 81 88 63 51
73 56 105 51 49 -8 76 21 76 82 0 58 -24 81 -111 105 -122 34 -128 34 -152 4
-13 -16 -22 -42 -22 -61 0 -25 -9 -41 -37 -69 -51 -49 -149 -98 -179 -91 -13
4 -84 47 -157 96 -186 124 -246 151 -350 156 -45 2 -101 -1 -124 -6z"/>
<path d="M11115 17449 c-71 -10 -141 -23 -155 -28 -27 -11 -110 -26 -202 -36
-62 -7 -88 -28 -88 -71 0 -46 30 -65 112 -73 43 -4 80 -10 84 -14 4 -4 0 -24
-9 -44 -9 -21 -19 -49 -23 -63 -3 -14 -13 -32 -21 -42 -41 -46 14 -107 70 -77
184 99 348 216 402 286 40 52 39 51 23 107 -13 45 -35 77 -52 75 -6 -1 -69
-10 -141 -20z"/>
<path d="M13237 17061 c-287 -275 -805 -314 -1062 -81 -67 61 -106 66 -157 22
-18 -16 -45 -35 -61 -43 -176 -90 -240 -118 -288 -124 -30 -4 -88 -18 -129
-30 -110 -34 -223 -55 -299 -55 -36 -1 -86 -5 -111 -11 -25 -6 -69 -14 -99
-18 -32 -4 -57 -14 -62 -23 -21 -38 -254 -267 -316 -311 -128 -91 -255 -169
-323 -198 -38 -16 -84 -38 -102 -48 -54 -32 -144 -48 -323 -61 -134 -9 -173
-15 -182 -28 -18 -22 -16 -36 6 -63 20 -25 53 -31 238 -45 104 -8 399 21 462
46 25 9 66 21 90 25 37 6 130 43 271 108 49 23 190 118 261 178 91 76 89 75
184 89 341 50 546 106 728 200 55 27 106 50 115 50 10 0 49 -12 87 -26 39 -14
97 -31 130 -39 81 -19 330 -19 411 0 143 33 281 90 370 152 81 55 197 169 243
238 61 91 65 103 46 131 -26 40 -59 31 -128 -35z"/>
<path d="M15806 13978 c-9 -12 -16 -32 -16 -43 0 -12 -4 -25 -9 -30 -5 -6 -21
-63 -36 -128 -45 -202 -130 -434 -252 -686 -36 -75 -72 -153 -79 -175 -35 -99
-183 -307 -354 -496 -136 -153 -436 -455 -480 -484 -19 -13 -118 -78 -220
-144 -102 -66 -219 -145 -260 -175 -150 -107 -378 -240 -599 -348 -79 -38
-156 -78 -170 -88 -65 -45 -269 -113 -630 -210 -231 -63 -457 -102 -666 -116
-49 -3 -142 -10 -205 -15 -299 -24 -828 -18 -1020 10 -36 5 -119 12 -185 16
-96 5 -158 16 -309 55 -105 27 -201 49 -214 49 -33 0 -220 58 -257 80 -16 10
-61 28 -100 41 -65 22 -258 115 -420 204 -280 153 -551 344 -735 516 -282 265
-526 523 -658 696 -126 166 -265 384 -313 489 -17 38 -39 87 -50 110 -84 187
-189 519 -189 599 0 62 -50 94 -94 62 -16 -12 -19 -29 -20 -108 -1 -52 2 -116
6 -144 4 -27 13 -88 18 -134 19 -146 56 -274 145 -502 70 -178 73 -189 48
-189 -10 0 -81 18 -158 40 -77 21 -196 48 -265 59 -289 47 -265 39 -260 86 3
29 64 144 99 189 17 22 41 55 53 75 12 20 41 57 65 83 48 52 54 85 22 114 -26
24 -73 21 -170 -9 -94 -29 -171 -80 -254 -166 -61 -63 -185 -217 -185 -230 0
-3 -7 -14 -14 -24 -10 -13 -33 -19 -97 -23 -122 -7 -392 -42 -554 -70 -77 -14
-176 -29 -220 -35 -44 -5 -123 -20 -175 -33 -52 -14 -126 -32 -165 -41 -106
-25 -336 -95 -375 -115 -19 -10 -69 -29 -110 -43 -84 -28 -326 -146 -434 -212
-39 -23 -93 -54 -121 -68 -65 -32 -189 -121 -284 -204 -177 -154 -463 -446
-563 -576 -29 -38 -70 -90 -91 -115 -54 -68 -106 -149 -137 -212 -14 -30 -40
-77 -58 -105 -17 -27 -43 -79 -58 -115 -15 -36 -32 -78 -39 -95 -7 -16 -25
-59 -40 -93 -40 -96 -104 -377 -114 -499 -20 -255 15 -513 111 -798 68 -205
220 -454 397 -650 311 -345 1021 -1062 1331 -1344 410 -373 1045 -699 1715
-881 138 -37 155 -41 274 -65 64 -13 152 -32 196 -43 186 -47 604 -84 995 -88
138 -1 768 -30 870 -40 57 -5 68 -3 93 16 21 17 27 30 27 60 0 45 -11 56 -65
65 -22 3 -78 12 -125 20 -47 7 -115 18 -151 24 -37 6 -98 11 -136 11 -85 0
-456 46 -481 59 -10 5 -50 15 -88 21 -89 15 -405 77 -464 91 -25 6 -115 33
-200 59 -85 27 -171 53 -190 58 -312 89 -461 147 -714 277 -255 130 -290 151
-602 354 -73 47 -151 98 -175 113 -85 52 -376 254 -425 294 -27 23 -103 82
-169 131 -66 50 -192 157 -280 238 -88 81 -227 204 -310 274 -82 69 -175 149
-205 176 -30 28 -73 64 -95 80 -22 16 -67 54 -100 85 -60 56 -164 139 -220
174 -36 23 -41 30 -153 176 -123 161 -149 205 -217 365 -29 68 -96 259 -115
327 -13 49 -23 132 -31 255 -9 157 -8 197 6 281 29 175 109 369 219 530 31 45
81 119 112 164 51 75 96 131 209 258 118 133 329 327 451 413 43 32 97 70 119
86 76 55 247 163 304 191 76 38 337 143 448 179 223 75 444 126 708 166 61 9
126 18 145 21 46 7 550 6 715 -2 188 -8 374 -31 500 -61 60 -14 128 -29 150
-34 58 -11 358 -125 445 -169 99 -49 174 -94 235 -139 28 -21 69 -51 92 -67
122 -85 482 -412 584 -530 252 -294 390 -564 529 -1043 16 -57 28 -113 25
-125 -3 -11 3 -46 14 -76 14 -42 24 -57 45 -65 43 -15 69 19 74 97 10 151 -47
604 -105 837 -5 22 -3 23 20 17 14 -3 74 -34 134 -68 147 -83 261 -135 465
-211 360 -135 575 -204 737 -238 52 -11 97 -22 101 -24 3 -2 61 -15 130 -30
412 -88 1107 -97 1485 -20 39 8 133 26 210 40 77 15 192 40 255 57 63 17 174
46 245 65 72 19 162 47 200 63 106 44 247 98 270 102 27 4 26 -8 -24 -187 -23
-82 -51 -211 -61 -285 -11 -74 -30 -196 -42 -270 -24 -154 -34 -482 -17 -584
6 -34 13 -89 17 -124 7 -55 20 -82 42 -82 21 0 35 27 41 77 4 32 17 137 28
233 12 96 23 181 26 188 2 7 16 69 30 138 80 393 245 719 542 1065 49 57 108
130 132 161 63 84 425 414 547 498 28 19 98 70 155 113 57 44 123 87 147 98
24 10 57 29 75 43 112 84 533 305 705 370 109 42 270 92 447 141 199 54 668
103 882 91 319 -17 430 -27 603 -52 174 -25 242 -39 435 -87 55 -14 124 -30
153 -36 29 -6 76 -23 105 -37 28 -15 99 -45 157 -66 99 -37 302 -141 415 -213
28 -17 75 -47 105 -65 56 -34 131 -94 251 -198 63 -55 175 -182 239 -270 112
-155 240 -602 240 -837 0 -96 -27 -320 -45 -373 -8 -23 -15 -47 -15 -53 0 -17
-91 -237 -122 -297 -67 -125 -172 -309 -201 -352 -55 -80 -180 -242 -287 -370
-102 -123 -121 -147 -209 -272 -129 -181 -326 -419 -430 -517 -121 -116 -406
-358 -535 -455 -271 -204 -427 -304 -726 -466 -74 -41 -176 -98 -227 -127
-194 -113 -420 -215 -558 -253 -38 -10 -131 -39 -205 -65 -222 -77 -330 -106
-432 -120 -54 -7 -105 -18 -113 -25 -23 -19 -19 -67 7 -81 30 -16 181 -6 298
20 415 92 498 114 800 212 36 12 135 55 220 96 85 42 190 90 232 109 86 37
283 139 483 249 72 40 166 91 210 115 44 24 127 73 185 110 93 60 159 104 425
287 38 26 117 93 175 148 58 55 164 153 235 218 72 65 164 157 205 205 41 47
105 118 141 157 101 107 303 388 464 645 41 65 145 261 169 318 14 31 42 98
64 147 34 77 55 145 112 365 34 131 46 322 29 469 -24 208 -116 469 -231 662
-25 40 -60 101 -78 133 -71 127 -448 516 -590 611 -41 27 -88 61 -105 75 -78
68 -440 264 -574 311 -30 11 -65 26 -76 33 -12 8 -57 25 -101 39 -43 14 -136
46 -207 71 -125 44 -375 106 -512 126 -38 6 -133 20 -210 31 -138 21 -272 32
-530 44 -196 9 -191 8 -199 57 -17 104 -97 233 -204 325 -82 71 -120 98 -152
108 -14 4 -35 16 -46 27 -16 14 -33 18 -60 16 -54 -4 -56 -33 -11 -106 19 -32
47 -88 62 -127 15 -38 38 -95 51 -126 18 -42 24 -75 24 -127 0 -39 -4 -73 -9
-76 -5 -3 -43 -8 -85 -11 -109 -7 -364 -61 -549 -117 -37 -11 -71 -18 -74 -14
-3 3 6 32 20 63 47 105 105 267 117 327 7 33 18 77 25 97 18 51 62 247 87 389
25 143 27 420 2 458 -18 28 -39 28 -58 0z"/>
<path d="M16465 11753 c-140 -19 -417 -88 -490 -124 -135 -65 -250 -131 -315
-182 -208 -163 -476 -416 -579 -546 -33 -42 -84 -105 -112 -141 -73 -92 -278
-392 -326 -475 -69 -120 -177 -294 -274 -441 -52 -78 -139 -212 -194 -298
-143 -225 -280 -422 -340 -491 -188 -214 -323 -316 -619 -466 -290 -147 -366
-206 -613 -475 -56 -61 -128 -129 -159 -150 -66 -43 -188 -79 -305 -89 -93 -7
-249 -54 -354 -106 -91 -44 -266 -181 -327 -255 -46 -56 -102 -163 -112 -214
-4 -19 -21 -88 -37 -153 -25 -99 -29 -129 -24 -195 8 -103 23 -168 50 -222 12
-25 29 -62 38 -83 21 -47 59 -65 93 -42 26 17 30 47 13 91 -41 110 -27 314 31
422 76 144 215 267 383 341 84 36 390 121 672 185 148 33 293 132 385 261 28
39 79 111 114 160 70 99 119 140 241 204 44 23 85 48 90 55 6 8 46 35 90 62
44 26 91 56 105 66 175 130 302 229 335 259 22 20 67 59 100 85 107 87 349
295 374 323 13 14 78 82 145 151 125 129 183 196 206 240 7 14 30 48 52 77 40
52 120 196 210 378 27 55 67 136 89 180 46 93 286 449 374 554 215 258 327
361 575 528 104 70 323 187 395 212 157 53 327 94 445 106 259 26 468 4 709
-75 93 -30 121 -27 121 13 -1 60 -115 122 -284 153 -45 8 -115 25 -156 38
-114 36 -157 46 -255 56 -49 5 -119 14 -155 20 -62 9 -341 11 -405 3z"/>
<path d="M10627 11651 c-89 -25 -117 -44 -117 -80 0 -37 29 -49 100 -40 37 4
87 0 153 -12 54 -11 100 -19 103 -19 13 0 0 -30 -27 -64 -33 -39 -41 -88 -19
-110 23 -23 109 -7 211 40 101 46 189 73 242 74 32 0 77 40 77 68 0 47 -57 79
-240 134 -98 29 -389 35 -483 9z"/>
<path d="M6260 11304 c-8 -2 -55 -8 -105 -13 -231 -24 -576 -119 -732 -201
-197 -104 -231 -129 -415 -311 -119 -117 -138 -141 -138 -168 0 -24 5 -32 25
-37 35 -9 76 10 150 71 77 63 198 145 215 145 6 0 30 11 53 24 39 23 114 50
292 106 41 13 99 23 140 24 39 0 75 6 82 12 27 26 376 28 568 3 133 -18 263
-48 360 -84 51 -19 95 -35 99 -35 3 0 40 -16 83 -36 233 -108 324 -156 378
-198 33 -25 105 -79 160 -118 108 -77 171 -128 420 -334 88 -73 205 -170 261
-216 134 -110 408 -353 514 -454 47 -45 115 -106 151 -135 36 -30 96 -82 135
-116 144 -129 569 -404 731 -475 27 -11 72 -31 101 -44 119 -54 184 -79 366
-139 147 -49 224 -68 332 -84 211 -32 320 -42 409 -39 44 2 235 2 425 1 l345
-2 75 -27 c130 -46 233 -133 289 -244 41 -81 64 -96 95 -61 21 24 18 46 -31
211 -68 229 -167 328 -408 411 -107 36 -231 58 -335 59 -47 0 -271 1 -498 0
-228 0 -417 2 -420 4 -4 2 -43 7 -87 10 -208 17 -413 87 -624 214 -253 151
-303 194 -731 625 -146 147 -316 313 -379 370 -63 56 -175 164 -250 241 -75
76 -183 179 -241 229 -58 50 -130 114 -160 143 -57 54 -236 195 -350 275 -56
39 -110 70 -285 162 -48 25 -102 47 -117 47 -7 0 -26 7 -43 16 -54 28 -398
126 -510 145 -100 17 -358 32 -395 23z"/>
<path d="M12774 10280 c-11 -4 -67 -38 -125 -75 -57 -38 -135 -78 -173 -91
-38 -13 -77 -31 -86 -39 -10 -9 -44 -25 -76 -36 -32 -11 -73 -26 -90 -34 -52
-24 -148 -43 -364 -70 -113 -15 -230 -30 -260 -34 -51 -8 -191 -2 -335 14 -94
10 -202 35 -288 67 -75 27 -81 28 -98 12 -26 -23 -24 -38 10 -76 89 -101 422
-209 766 -247 44 -5 160 -9 258 -9 98 0 180 -2 183 -5 8 -7 -53 -51 -111 -80
-27 -13 -97 -41 -155 -62 -58 -20 -115 -43 -127 -51 -30 -19 -29 -45 3 -75 23
-22 33 -24 114 -23 62 1 106 8 151 24 86 30 238 98 271 121 14 11 30 19 36 19
5 0 27 13 49 29 22 16 54 36 72 45 45 23 219 183 250 230 70 103 167 283 180
332 12 44 5 104 -13 116 -13 9 -15 9 -42 -2z"/>
<path d="M13615 7738 c-126 -18 -172 -27 -248 -47 -43 -11 -85 -25 -93 -32
-20 -16 -18 -43 5 -63 18 -16 30 -16 137 -6 169 17 267 5 451 -55 135 -44 355
-166 432 -239 89 -85 224 -315 233 -397 3 -32 1 -34 -53 -54 -31 -11 -63 -26
-72 -33 -23 -20 -29 -58 -13 -95 l14 -34 103 -7 c177 -11 285 -36 399 -90 131
-63 223 -146 264 -239 52 -117 42 -198 -37 -317 -62 -93 -107 -142 -174 -186
-66 -45 -100 -54 -195 -54 -129 0 -167 13 -277 95 -111 82 -137 118 -152 204
-17 94 -47 104 -96 31 -32 -46 -31 -125 4 -231 22 -68 36 -93 81 -142 l55 -60
-7 -61 c-3 -37 1 -115 11 -196 19 -144 23 -316 10 -392 -9 -55 -89 -167 -191
-270 -37 -36 -77 -86 -89 -110 -15 -28 -44 -57 -83 -84 -80 -56 -145 -65 -241
-33 -182 60 -324 158 -444 306 -35 43 -66 80 -69 83 -18 15 -100 130 -115 160
-10 19 -34 60 -55 90 -20 30 -43 65 -51 76 -80 120 -219 299 -239 306 -4 2
-23 22 -42 44 -91 114 -344 308 -464 357 -101 41 -150 50 -185 32 -16 -9 -33
-23 -36 -31 -7 -20 29 -55 88 -84 97 -49 241 -164 343 -274 221 -236 274 -315
429 -625 148 -295 227 -420 327 -515 87 -82 154 -125 274 -179 90 -40 92 -41
232 -44 112 -3 150 -1 185 12 48 18 46 17 133 36 51 11 59 11 67 -3 5 -10 17
-14 33 -11 16 3 32 -2 48 -17 57 -53 131 -103 180 -122 42 -16 66 -19 118 -13
182 18 315 97 422 252 18 27 50 51 99 77 40 21 97 56 126 77 29 22 57 39 62
39 18 0 90 112 97 149 4 20 11 44 16 53 5 10 11 62 14 116 4 79 12 120 45 217
65 195 73 274 39 397 -11 40 -20 87 -20 106 0 18 -7 44 -16 57 -10 15 -14 37
-12 56 3 17 1 68 -3 113 -7 78 -6 84 26 161 35 83 75 256 75 322 0 21 -11 77
-23 125 -18 65 -34 100 -65 140 -66 86 -113 133 -177 177 -33 22 -78 53 -100
69 -22 15 -60 39 -83 52 -33 19 -54 42 -84 93 -40 68 -134 207 -207 304 -49
66 -168 177 -246 229 -122 82 -141 94 -206 123 -59 27 -177 65 -280 91 -34 9
-311 31 -354 29 -11 -1 -47 -6 -80 -11z m1535 -2101 c0 -13 -7 -46 -15 -75
-26 -87 -88 -120 -240 -128 -97 -6 -102 -5 -155 24 -54 29 -72 51 -85 104 l-7
26 154 4 c141 4 159 6 238 35 104 38 110 39 110 10z m92 -309 c23 -43 -5 -125
-66 -195 -45 -50 -81 -68 -168 -83 -58 -10 -75 -10 -123 6 -48 15 -64 26 -111
83 -42 51 -54 73 -54 100 l0 34 48 -9 c92 -17 212 -9 303 20 47 15 99 36 115
47 37 24 41 24 56 -3z m-468 -420 c66 -33 161 -48 264 -41 l92 6 0 -32 c0 -47
-31 -100 -93 -159 -65 -60 -90 -65 -214 -41 -58 11 -125 58 -148 103 -21 40
-20 160 1 181 18 17 36 14 98 -17z m-231 -284 c28 -31 79 -74 114 -96 34 -21
60 -44 57 -51 -2 -7 -20 -23 -39 -36 -69 -47 -184 -36 -249 24 -22 21 -26 32
-26 82 0 50 4 64 31 96 17 20 37 37 45 37 9 0 39 -25 67 -56z"/>
<path d="M9744 7540 c-11 -4 -26 -16 -34 -25 -8 -10 -47 -41 -86 -71 -56 -41
-87 -74 -139 -151 -176 -257 -235 -470 -222 -805 6 -182 40 -363 81 -435 9
-15 33 -74 55 -130 33 -87 64 -144 128 -238 7 -11 25 -38 39 -60 15 -22 50
-67 78 -100 29 -33 67 -80 84 -105 l32 -46 -10 -77 c-10 -68 -8 -92 10 -185
29 -146 65 -216 154 -298 38 -36 95 -80 125 -98 50 -28 57 -37 67 -77 25 -98
89 -177 194 -240 54 -32 87 -43 180 -60 63 -11 122 -25 130 -30 8 -5 29 -18
45 -29 63 -42 173 -80 249 -87 117 -9 242 23 289 75 10 11 30 25 45 31 17 7
41 35 62 72 50 88 72 109 114 109 96 0 237 92 337 218 60 76 127 203 150 282
17 61 19 437 2 471 -7 13 -19 41 -27 61 -17 42 -58 61 -81 37 -8 -8 -19 -57
-26 -109 -6 -52 -20 -122 -30 -155 -10 -33 -19 -69 -19 -79 0 -11 -17 -42 -39
-70 -21 -28 -50 -69 -64 -91 -37 -60 -126 -142 -177 -164 -62 -26 -156 -36
-211 -20 -24 6 -57 11 -72 10 -42 -2 -154 75 -207 143 -25 31 -60 74 -77 95
-65 76 -81 152 -84 404 l-3 199 60 29 c77 37 158 110 238 214 85 109 93 126
108 226 21 143 15 226 -25 311 -41 90 -123 177 -182 195 -22 6 -43 9 -47 7
-13 -9 -9 -41 8 -54 32 -27 47 -85 55 -213 6 -113 5 -136 -11 -183 -25 -71
-63 -123 -124 -168 -76 -57 -136 -70 -316 -70 l-156 -1 -58 35 c-113 67 -215
231 -216 345 0 91 49 189 111 224 51 29 74 66 60 97 -8 18 -19 24 -44 24 -73
0 -221 -99 -274 -183 -31 -50 -73 -177 -73 -223 0 -33 7 -69 32 -174 6 -25 22
-67 36 -94 31 -63 25 -100 -23 -166 -20 -28 -40 -50 -44 -50 -11 0 -50 43
-135 150 -150 186 -267 479 -283 706 -6 87 17 273 43 347 8 22 14 48 14 57 0
18 20 65 61 144 11 21 65 85 121 142 76 78 99 108 96 125 -3 26 -42 40 -74 29z
m436 -1765 c72 -44 223 -86 332 -92 77 -5 87 -8 92 -27 11 -40 6 -67 -24 -126
-35 -69 -85 -110 -157 -130 -42 -12 -56 -12 -132 8 -108 28 -181 81 -224 162
-26 50 -28 62 -25 130 6 95 20 124 56 115 15 -4 52 -22 82 -40z m-10 -514
c126 -45 223 -40 354 18 63 27 76 18 76 -54 0 -47 -5 -59 -46 -114 -75 -100
-129 -132 -220 -132 -81 0 -214 41 -258 80 -47 41 -67 125 -50 211 8 38 13 38
144 -9z m537 -308 c25 -32 28 -45 27 -104 -3 -119 -55 -191 -164 -223 -106
-31 -218 -9 -277 55 -16 18 -43 108 -43 145 0 5 156 53 190 59 19 4 71 28 115
55 44 27 90 49 102 49 14 1 32 -12 50 -36z m332 -294 c20 -10 41 -19 48 -19
40 0 57 -79 27 -128 -18 -30 -90 -87 -129 -102 -29 -11 -151 2 -183 19 -12 6
-27 21 -33 32 -9 18 -3 29 54 87 37 40 69 83 77 105 l12 39 46 -7 c25 -4 61
-15 81 -26z"/>
<path d="M13096 6740 c-108 -52 -198 -162 -235 -286 -24 -82 -26 -139 -7 -244
15 -86 46 -154 123 -262 70 -101 153 -174 261 -232 109 -59 132 -64 156 -37
17 19 18 24 5 48 -8 14 -34 47 -58 72 -24 25 -60 66 -79 91 -19 25 -37 47 -41
50 -18 13 -70 111 -87 165 -26 83 -27 306 -1 381 21 61 70 138 111 175 36 32
31 71 -14 94 -41 21 -66 18 -134 -15z"/>
</g>
</svg>
